<svg xmlns="http://www.w3.org/2000/svg" viewBox="5 5 37 37">
	<style>
			path, circle {
				fill: #999;
			}
			@media (prefers-color-scheme: dark) {
				path, circle {
					fill: #aaa;
				}
			}
	</style>

<!-- <path d="M381.675,20.803c-20.584,0-37.33,16.747-37.33,37.331c0,4.819,0.951,9.628,2.772,14.085l-61.297,61.297
	c-15.555-11.566-34.813-18.42-55.642-18.42c-16.635,0-32.861,4.426-47.175,12.833l-38.512-44.224
	c2.607-5.18,3.973-10.901,3.973-16.731c0-20.58-16.745-37.323-37.327-37.323c-20.582,0-37.327,16.743-37.327,37.323
	c0,20.584,16.745,37.331,37.327,37.331c3.89,0,7.699-0.594,11.365-1.77l38.083,43.729c-15.413,17.185-23.852,39.139-23.852,62.276
	c0,9.273,1.376,18.442,4.094,27.305l-83.869,59.693c-5.893-3.667-12.614-5.59-19.63-5.59C16.745,289.949,0,306.692,0,327.273
	c0,20.584,16.745,37.33,37.328,37.33c20.582,0,37.327-16.746,37.327-37.33c0-2.755-0.303-5.486-0.904-8.159l79.983-56.924
	c10.309,14.638,24.691,26.114,41.197,32.872l-8.918,25.146c-18.973,1.734-33.912,17.78-33.912,37.17
	c0,20.582,16.745,37.326,37.327,37.326c20.582,0,37.328-16.744,37.328-37.326c0-10.949-4.855-21.33-13.139-28.4l9.668-27.26
	c2.343,0.178,4.65,0.268,6.893,0.268c11.969,0,23.61-2.249,34.657-6.691l40.105,48.345c-2.775,5.309-4.229,11.201-4.229,17.227
	c0,20.584,16.743,37.331,37.322,37.331c20.585,0,37.332-16.747,37.332-37.331c0-20.58-16.747-37.323-37.332-37.323
	c-3.691,0-7.318,0.539-10.822,1.606l-37.223-44.87c21.434-17.844,33.632-43.73,33.632-71.738c0-20.273-6.492-39.057-17.502-54.387
	l61.468-61.468c4.458,1.819,9.269,2.771,14.089,2.771c20.581,0,37.325-16.743,37.325-37.323
	C419,37.55,402.256,20.803,381.675,20.803z M230.178,158.153c27.784,0,50.388,22.604,50.388,50.388
	c0,27.784-22.603,50.388-50.388,50.388c-27.785,0-50.39-22.604-50.39-50.388C179.788,180.757,202.393,158.153,230.178,158.153z"/> -->

<!-- <path xmlns="http://www.w3.org/2000/svg" d="M476.098,312.993c16.737-103.048-39.549-201.607-132.718-241.264c-13.716-35.021-47.559-59.71-87.38-59.71    c-39.751,0-73.647,24.635-87.381,59.711C75.405,111.405,19.172,209.996,35.902,312.994C13.52,330.628,0,357.955,0,386.767    c0,72.402,78.903,117.239,140.807,81.177c69.508,42.014,158.56,43.413,230.384-0.007c61.777,35.989,140.809-8.643,140.809-81.17    C512,357.951,498.476,330.62,476.098,312.993z M256,44.548c32.982,0,61.264,26.783,61.264,61.265    c0,33.782-27.484,61.265-61.264,61.265c-33.78,0-61.264-27.484-61.264-61.265C194.736,71.519,222.823,44.548,256,44.548z     M93.795,448.032c-33.781-0.001-61.265-27.484-61.265-61.265c0-34.688,28.155-61.265,61.265-61.265    c33.78,0,61.264,27.484,61.264,61.265C155.059,421.195,127.103,448.032,93.795,448.032z M344.971,445.42    c-55.443,29.352-122.418,29.395-177.943,0.005c57.025-70.757-11.94-175.232-100.461-148.411    c-8.064-77.095,30.798-149.311,95.787-185.979c2.72,49.298,43.68,88.572,93.647,88.572s90.927-39.274,93.647-88.572    c65.619,37.023,103.781,109.568,95.787,185.979C356.779,270.148,288.094,374.806,344.971,445.42z M418.205,448.031    c-33.259,0-61.264-26.825-61.264-61.265c0-33.781,27.484-61.265,61.264-61.265c33.031,0,61.265,26.494,61.265,61.265    C479.47,420.548,451.986,448.031,418.205,448.031z"/> -->

<!-- <path xmlns="http://www.w3.org/2000/svg" d="M486.068,377.8c0.024-0.083,0.044-0.166,0.065-0.25c0.069-0.272,0.123-0.544,0.165-0.818    c0.01-0.067,0.023-0.133,0.032-0.2c0.044-0.348,0.069-0.697,0.069-1.044c0-0.007,0.001-0.014,0.001-0.022V136.533    c0-0.007-0.001-0.014-0.001-0.022c-0.001-0.348-0.026-0.696-0.069-1.044c-0.008-0.067-0.022-0.133-0.032-0.201    c-0.041-0.274-0.096-0.546-0.164-0.818c-0.021-0.084-0.042-0.167-0.065-0.25c-0.079-0.277-0.172-0.551-0.281-0.823    c-0.02-0.049-0.035-0.1-0.056-0.149c-0.119-0.283-0.253-0.563-0.405-0.838c-0.013-0.024-0.03-0.045-0.043-0.069    c-0.042-0.074-0.091-0.143-0.135-0.216c-0.135-0.223-0.278-0.438-0.43-0.644c-0.059-0.08-0.12-0.157-0.181-0.234    c-0.167-0.211-0.343-0.411-0.526-0.602c-0.05-0.052-0.097-0.106-0.149-0.157c-0.249-0.246-0.509-0.478-0.783-0.689    c-0.012-0.009-0.025-0.017-0.037-0.026c-0.26-0.199-0.533-0.377-0.812-0.544c-0.034-0.02-0.064-0.046-0.099-0.066l-221.867-128    c-0.021-0.012-0.044-0.02-0.065-0.032c-0.303-0.172-0.615-0.327-0.939-0.462c-0.021-0.009-0.043-0.015-0.064-0.023    c-0.292-0.118-0.592-0.217-0.898-0.303c-0.084-0.023-0.168-0.044-0.253-0.065c-0.253-0.062-0.509-0.112-0.77-0.152    c-0.087-0.013-0.173-0.029-0.26-0.04C256.681,0.026,256.344,0,256,0c-0.344,0-0.681,0.026-1.015,0.066    c-0.087,0.01-0.173,0.027-0.26,0.04c-0.261,0.039-0.518,0.089-0.771,0.152c-0.084,0.021-0.168,0.041-0.252,0.065    c-0.307,0.086-0.607,0.185-0.899,0.303c-0.021,0.008-0.042,0.014-0.063,0.023c-0.324,0.134-0.636,0.29-0.939,0.462    c-0.021,0.012-0.044,0.02-0.065,0.032l-221.867,128c-0.035,0.02-0.065,0.046-0.099,0.066c-0.28,0.166-0.552,0.345-0.812,0.544    c-0.012,0.009-0.025,0.017-0.037,0.026c-0.274,0.211-0.534,0.443-0.783,0.689c-0.051,0.051-0.099,0.105-0.149,0.157    c-0.184,0.191-0.359,0.391-0.526,0.602c-0.062,0.078-0.123,0.155-0.181,0.234c-0.152,0.206-0.294,0.421-0.43,0.644    c-0.044,0.073-0.093,0.142-0.135,0.216c-0.013,0.024-0.03,0.045-0.043,0.069c-0.153,0.275-0.286,0.555-0.405,0.838    c-0.021,0.049-0.036,0.1-0.056,0.149c-0.109,0.272-0.202,0.546-0.281,0.823c-0.024,0.083-0.044,0.166-0.065,0.25    c-0.069,0.271-0.123,0.544-0.164,0.818c-0.01,0.067-0.023,0.133-0.032,0.201c-0.044,0.348-0.069,0.696-0.069,1.044    c0,0.007-0.001,0.014-0.001,0.022v238.933c0,0.007,0.001,0.014,0.001,0.022c0.001,0.348,0.026,0.696,0.069,1.044    c0.008,0.067,0.021,0.133,0.032,0.2c0.041,0.274,0.096,0.547,0.165,0.818c0.021,0.084,0.042,0.167,0.065,0.25    c0.079,0.277,0.172,0.551,0.281,0.823c0.02,0.049,0.035,0.1,0.055,0.149c0.119,0.283,0.253,0.563,0.405,0.838    c0.013,0.024,0.03,0.045,0.043,0.069c0.042,0.074,0.091,0.143,0.135,0.216c0.135,0.223,0.278,0.438,0.43,0.644    c0.059,0.079,0.12,0.157,0.181,0.234c0.167,0.211,0.343,0.411,0.527,0.603c0.05,0.052,0.097,0.106,0.148,0.156    c0.249,0.246,0.509,0.478,0.783,0.689c0.013,0.01,0.026,0.018,0.039,0.027c0.26,0.198,0.531,0.376,0.81,0.542    c0.035,0.021,0.065,0.046,0.1,0.067l221.867,128c0.021,0.012,0.044,0.02,0.066,0.032c0.302,0.171,0.614,0.327,0.938,0.461    c0.021,0.009,0.044,0.015,0.065,0.024c0.291,0.118,0.591,0.217,0.896,0.302c0.085,0.024,0.169,0.044,0.254,0.065    c0.252,0.062,0.508,0.112,0.769,0.151c0.088,0.013,0.174,0.029,0.262,0.04c0.332,0.039,0.667,0.065,1.01,0.065    c0.003,0,0.006,0,0.009,0c0.342,0,0.678-0.026,1.01-0.065c0.088-0.01,0.175-0.027,0.263-0.04c0.26-0.039,0.516-0.089,0.768-0.151    c0.085-0.021,0.17-0.042,0.255-0.065c0.305-0.085,0.605-0.184,0.895-0.302c0.022-0.009,0.044-0.015,0.066-0.024    c0.324-0.134,0.635-0.29,0.938-0.461c0.021-0.012,0.044-0.02,0.066-0.032l221.867-128c0.035-0.02,0.065-0.046,0.1-0.067    c0.279-0.166,0.55-0.344,0.81-0.542c0.013-0.01,0.026-0.018,0.039-0.027c0.274-0.211,0.534-0.443,0.783-0.689    c0.051-0.051,0.098-0.104,0.148-0.156c0.184-0.191,0.359-0.392,0.527-0.603c0.062-0.077,0.122-0.155,0.181-0.234    c0.152-0.206,0.295-0.422,0.43-0.644c0.044-0.073,0.093-0.142,0.135-0.216c0.013-0.024,0.03-0.045,0.043-0.069    c0.153-0.275,0.286-0.555,0.405-0.838c0.021-0.049,0.036-0.1,0.055-0.149C485.896,378.352,485.989,378.077,486.068,377.8z     M42.667,151.036l60.266,33.481c-2.07,13.679,4.359,27.819,17.163,34.938c13.622,7.582,30.186,4.832,40.697-5.665l18.527,10.105    c-0.071,0.444-0.119,0.893-0.119,1.351v61.508c0,0.458,0.048,0.908,0.119,1.351l-18.528,10.106    c-10.511-10.496-27.075-13.246-40.7-5.662c-12.801,7.116-19.229,21.256-17.158,34.933l-60.267,33.482V151.036z M402.317,168.744    c-10.137-13.147-28.641-17.26-43.597-8.946c-14.165,7.89-20.523,24.358-16.201,39.29l-23.912,13.043l-54.075-31.194v-28.411    c14.723-3.789,25.6-17.152,25.6-33.058s-10.877-29.269-25.6-33.058v-63.1l196.014,113.085L402.317,168.744z M367.019,174.711    c8.235-4.578,18.628-1.617,23.205,6.616c4.587,8.24,1.624,18.633-6.612,23.211c-8.24,4.586-18.626,1.625-23.214-6.616    C355.816,189.69,358.78,179.3,367.019,174.711z M256,409.6c-9.427,0-17.067-7.64-17.067-17.067c0-9.427,7.64-17.067,17.067-17.067    c9.427,0,17.067,7.64,17.067,17.067C273.067,401.96,265.427,409.6,256,409.6z M256,102.4c9.427,0,17.067,7.64,17.067,17.067    s-7.64,17.067-17.067,17.067c-9.427,0-17.067-7.64-17.067-17.067S246.573,102.4,256,102.4z M264.533,200.639l36.519,21.067    l-36.519,19.92V200.639z M247.467,241.625l-36.519-19.92l36.519-21.067V241.625z M238.18,256l-41.913,22.862v-45.723L238.18,256z     M247.467,270.375v40.987l-36.519-21.067L247.467,270.375z M264.533,270.375l36.519,19.92l-36.519,21.067V270.375z M273.82,256    l41.913-22.862v45.723L273.82,256z M247.467,86.409c-14.723,3.789-25.6,17.152-25.6,33.058s10.877,29.269,25.6,33.058v28.411    l-54.075,31.194l-23.912-13.043c4.322-14.932-2.034-31.399-16.194-39.286c-14.96-8.317-33.464-4.205-43.603,8.943l-58.231-32.351    L247.467,23.308V86.409z M151.602,197.922c-4.587,8.241-14.974,11.203-23.21,6.618c-8.24-4.581-11.203-14.973-6.618-23.21    c4.579-8.237,14.972-11.198,23.214-6.616C153.22,179.3,156.184,189.69,151.602,197.922z M144.981,337.291    c-8.236,4.579-18.627,1.616-23.204-6.622c-4.587-8.236-1.625-18.627,6.611-23.205c8.24-4.586,18.626-1.625,23.214,6.616    C156.184,322.312,153.22,332.702,144.981,337.291z M109.685,343.255c10.134,13.149,28.638,17.264,43.595,8.949    c14.166-7.891,20.523-24.359,16.2-39.291l23.912-13.043l54.075,31.194v28.411c-14.723,3.789-25.6,17.152-25.6,33.058    c0,15.906,10.877,29.269,25.6,33.058v63.1L51.452,375.607L109.685,343.255z M264.533,425.591    c14.723-3.789,25.6-17.152,25.6-33.058c0-15.906-10.877-29.269-25.6-33.058v-28.411l54.075-31.194l23.912,13.043    c-4.323,14.932,2.034,31.4,16.194,39.288c14.96,8.317,33.462,4.205,43.6-8.946l58.234,32.352L264.533,488.692V425.591z     M360.398,314.08c4.587-8.241,14.974-11.203,23.21-6.618c8.24,4.581,11.202,14.972,6.62,23.199    c-4.582,8.247-14.973,11.209-23.215,6.627C358.78,332.702,355.816,322.312,360.398,314.08z M409.068,327.483    c2.071-13.675-4.358-27.817-17.163-34.936c-13.622-7.582-30.185-4.832-40.696,5.664l-18.528-10.106    c0.071-0.444,0.119-0.893,0.119-1.351v-61.508c0-0.458-0.048-0.908-0.119-1.351l18.527-10.105    c10.511,10.497,27.076,13.248,40.701,5.663c12.8-7.116,19.228-21.255,17.158-34.935l60.267-33.482v209.928L409.068,327.483z"/> -->

<!-- <path xmlns="http://www.w3.org/2000/svg" d="M176,156a43.80846,43.80846,0,0,0-29.09375,11.032l-40.81006-26.2351a43.9604,43.9604,0,0,0,0-25.59375L146.90625,88.968a43.88869,43.88869,0,1,0-13.00244-20.17188L93.09326,95.03149a44,44,0,1,0,0,65.937l40.81055,26.23535A43.99884,43.99884,0,1,0,176,156Zm0-120a20,20,0,1,1-20,20A20.02229,20.02229,0,0,1,176,36ZM64,148a20,20,0,1,1,20-20A20.02229,20.02229,0,0,1,64,148Zm112,72a20,20,0,1,1,20-20A20.02229,20.02229,0,0,1,176,220Z"/> -->


	<path d="M17.567,15.938l-2.859-2.702c0.333-0.605,0.539-1.29,0.539-2.029c0-2.342-1.897-4.239-4.24-4.239     c-2.343,0-4.243,1.896-4.243,4.239c0,2.343,1.9,4.241,4.243,4.241c0.826,0,1.59-0.246,2.242-0.654l2.855,2.699     C16.536,16.922,17.023,16.399,17.567,15.938z"/>
	<path d="M29.66,15.6l3.799-6.393c0.374,0.107,0.762,0.184,1.169,0.184c2.347,0,4.244-1.898,4.244-4.241     c0-2.342-1.897-4.239-4.244-4.239c-2.343,0-4.239,1.896-4.239,4.239c0,1.163,0.469,2.214,1.227,2.981l-3.787,6.375     C28.48,14.801,29.094,15.169,29.66,15.6z"/>
	<path d="M42.762,20.952c-1.824,0-3.369,1.159-3.968,2.775l-5.278-0.521c0,0.04,0.006,0.078,0.006,0.117     c0,0.688-0.076,1.36-0.213,2.009l5.276,0.521c0.319,2.024,2.062,3.576,4.177,3.576c2.342,0,4.238-1.896,4.238-4.238     C47,22.85,45.104,20.952,42.762,20.952z"/>
	<path d="M28.197,37.624l-1.18-5.156c-0.666,0.232-1.359,0.398-2.082,0.481l1.182,5.157c-1.355,0.709-2.29,2.11-2.29,3.746     c0,2.342,1.896,4.237,4.243,4.237c2.342,0,4.238-1.896,4.238-4.237C32.311,39.553,30.479,37.692,28.197,37.624z"/>
	<path d="M14.357,25.37l-6.57,2.201c-0.758-1.158-2.063-1.926-3.548-1.926C1.896,25.645,0,27.542,0,29.884     c0,2.345,1.896,4.242,4.239,4.242c2.341,0,4.242-1.897,4.242-4.242c0-0.098-0.021-0.188-0.029-0.284l6.591-2.207     C14.746,26.752,14.51,26.077,14.357,25.37z"/>
	<circle cx="23.83" cy="23.323" r="7.271"/>



</svg>

